<?xml version="1.0" encoding="UTF-8" standalone="no"?>
<!DOCTYPE svg PUBLIC "-//W3C//DTD SVG 1.1//EN" "http://www.w3.org/Graphics/SVG/1.1/DTD/svg11.dtd">
<svg width="100%" height="100%" viewBox="0 0 367 251" version="1.1" xmlns="http://www.w3.org/2000/svg" xmlns:xlink="http://www.w3.org/1999/xlink" xml:space="preserve" xmlns:serif="http://www.serif.com/" style="fill-rule:evenodd;clip-rule:evenodd;stroke-linejoin:round;stroke-miterlimit:2;">
    <g transform="matrix(1,0,0,1,-2863,-28)">
        <g id="Artboard2" transform="matrix(1,0,0,1,-0.724178,-0.877555)">
            <rect x="2863.72" y="28.878" width="366.009" height="250.418" style="fill:none;"/>
            <g transform="matrix(0.851865,-0.00512606,0.00508664,0.845314,2564.32,-35.6203)">
                <path d="M446.718,332.234L384.42,123.559L499.397,189.958L570.615,127.745L640.803,189.91L747.13,120.856L698.911,336.926L446.718,332.234Z"/>
                <path d="M640.61,173.813L683.813,141.859C685.246,140.798 686.498,139.448 688.103,138.684C695.429,135.196 703.132,136.552 709.821,133.112C723.556,126.05 731.173,114.478 736.265,110.926C738.274,109.524 739.569,109.033 739.569,109.033C744.332,105.94 750.478,106.055 755.123,109.325C759.768,112.595 761.99,118.371 760.747,123.942C760.747,123.942 754.605,136.484 748.964,156.865C748.224,159.54 747.765,162.413 747.271,165.379C744.149,184.119 744.531,207.567 738.55,230.14C734.372,245.91 725.825,259.546 720.892,273.808C720.156,275.937 719.496,278.056 719.043,280.199C711.965,313.688 710.967,339.658 710.967,339.658C709.68,345.425 704.548,349.486 698.683,349.377C698.683,349.377 694.813,350.104 688.085,349.523C680.028,348.826 668.902,344.066 654.295,343.159C651.544,342.988 648.728,343.48 645.809,343.686C627.339,344.99 606.038,347.257 583.911,348.575C562.918,349.826 541.583,350.944 522.057,351.061C516.86,351.092 511.788,351.059 506.928,350.635C471.582,347.547 446.543,341.75 446.543,341.75C442.44,341.674 438.856,338.936 437.673,334.976C437.673,334.976 429.405,319.068 419.839,294.871C415.052,282.764 410.525,268.494 405.526,253.698C402.224,243.923 398.506,233.997 395.747,223.893C389.337,200.418 386.338,176.939 381.582,159.373C380.914,156.908 380.171,154.574 379.33,152.41C373.443,137.252 368.38,128.422 368.38,128.422C366.404,121.804 368.631,114.641 374.001,110.342C379.371,106.043 386.798,105.477 392.749,108.914C392.749,108.914 397.578,110.535 404.997,114.233C427.736,125.566 475.506,153.391 497.478,166.304C508.016,157.549 524.477,144.049 538.201,133.565C550.936,123.837 561.32,116.94 561.32,116.94C566.682,112.256 574.652,112.284 579.982,117.004C579.982,117.004 594.993,135.202 612.469,151.076C622.538,160.221 633.308,168.48 640.61,173.813ZM731.606,143.131C727.985,144.911 724.244,147.138 720.642,150.032C714.77,154.751 712.813,162.38 706.635,167.663C705.281,168.82 703.544,169.411 701.994,170.288C674.692,185.738 647.853,200.935 647.853,200.935C642.965,204.11 636.579,203.631 632.211,199.762C632.211,199.762 616.749,181.953 598.948,166.58C589.767,158.651 580.066,151.452 572.801,146.331C569.48,149.89 565.176,154.392 560.298,159.253C540.529,178.95 512.031,204.646 512.031,204.646C505.835,210.059 496.921,210.932 489.806,206.824C489.806,206.824 442.848,180.448 409.365,160.232C415.212,175.829 423.574,194.008 429.909,213.536C433.139,223.496 435.474,233.842 438.071,243.83C442.004,258.95 446.041,273.369 448.678,286.127C451.816,301.312 453.729,313.79 454.757,321.399C464.858,319.818 483.943,317.265 507.561,316.085C512.433,315.842 517.503,315.998 522.695,316.222C542.204,317.065 563.483,318.976 584.416,321.007C606.48,323.147 627.684,326.206 646.092,328.195C649.002,328.51 651.798,329.106 654.554,329.038C669.184,328.674 680.477,324.331 688.554,323.935L690.84,323.867C694.511,313.81 700.085,297.113 704.817,276.975C705.318,274.843 705.622,272.643 705.861,270.402C707.463,255.385 705.532,239.373 708.455,223.32C712.64,200.34 722.948,179.314 728.087,161.032C728.901,158.138 729.706,155.344 730.174,152.606C730.745,149.262 731.219,146.094 731.606,143.131Z"/>
            </g>
        </g>
    </g>
</svg>
